<svg width="13" height="15" viewBox="0 0 13 15" fill="none" xmlns="http://www.w3.org/2000/svg">
<g id="Group">
<path id="Vector" d="M1 3.75V5.125H12V3.75C12 3.38533 11.8551 3.03559 11.5973 2.77773C11.3394 2.51987 10.9897 2.375 10.625 2.375H2.375C2.01033 2.375 1.66059 2.51987 1.40273 2.77773C1.14487 3.03559 1 3.38533 1 3.75Z" fill="#2D2A30"/>
<path id="Vector_2" d="M9.25 2.375H10.625C10.9897 2.375 11.3394 2.51987 11.5973 2.77773C11.8551 3.03559 12 3.38533 12 3.75V5.125H1V3.75C1 3.38533 1.14487 3.03559 1.40273 2.77773C1.66059 2.51987 2.01033 2.375 2.375 2.375H3.75M9.25 2.375V1M9.25 2.375H3.75M3.75 2.375V1M1 5.46875V12C1 12.3647 1.14487 12.7144 1.40273 12.9723C1.66059 13.2301 2.01033 13.375 2.375 13.375H10.625C10.9897 13.375 11.3394 13.2301 11.5973 12.9723C11.8551 12.7144 12 12.3647 12 12V5.46875" stroke="#2D2A30" stroke-width="1.375" stroke-linecap="round" stroke-linejoin="round"/>
</g>
</svg>
