<svg width="33" height="33" viewBox="0 0 33 33" fill="none" xmlns="http://www.w3.org/2000/svg">
<g id="basil:cross-solid">
<path id="Vector" d="M22.0904 12.3682C22.1889 12.2731 22.2675 12.1593 22.3216 12.0335C22.3757 11.9077 22.4043 11.7724 22.4055 11.6355C22.4068 11.4986 22.3807 11.3628 22.3289 11.236C22.2771 11.1092 22.2006 10.9941 22.1039 10.8972C22.0071 10.8003 21.892 10.7237 21.7653 10.6718C21.6385 10.6199 21.5028 10.5937 21.3658 10.5948C21.2289 10.596 21.0936 10.6243 20.9677 10.6783C20.8419 10.7323 20.7281 10.8108 20.6329 10.9093L16.4996 15.0412L12.3678 10.9093C12.2733 10.808 12.1595 10.7267 12.033 10.6703C11.9065 10.614 11.7699 10.5837 11.6315 10.5812C11.493 10.5788 11.3555 10.6042 11.2271 10.6561C11.0986 10.708 10.982 10.7852 10.8841 10.8831C10.7862 10.981 10.709 11.0977 10.6571 11.2261C10.6052 11.3545 10.5797 11.492 10.5822 11.6305C10.5846 11.769 10.6149 11.9055 10.6713 12.032C10.7277 12.1585 10.8089 12.2724 10.9103 12.3668L15.0394 16.5L10.9075 20.6319C10.7253 20.8274 10.6262 21.086 10.6309 21.3531C10.6356 21.6203 10.7438 21.8752 10.9328 22.0641C11.1217 22.2531 11.3766 22.3613 11.6438 22.366C11.911 22.3707 12.1695 22.2716 12.365 22.0894L16.4996 17.9575L20.6315 22.0908C20.827 22.2729 21.0856 22.3721 21.3527 22.3674C21.6199 22.3627 21.8748 22.2545 22.0637 22.0655C22.2527 21.8766 22.3609 21.6217 22.3656 21.3545C22.3703 21.0873 22.2712 20.8288 22.089 20.6333L17.9599 16.5L22.0904 12.3682Z" fill="#2D2A30"/>
</g>
</svg>
