<svg width="13" height="13" viewBox="0 0 13 13" fill="none" xmlns="http://www.w3.org/2000/svg">
<path id="Vector" d="M6.5 6.5C5.60625 6.5 4.84115 6.18177 4.20469 5.54531C3.56823 4.90885 3.25 4.14375 3.25 3.25C3.25 2.35625 3.56823 1.59115 4.20469 0.954688C4.84115 0.318229 5.60625 0 6.5 0C7.39375 0 8.15885 0.318229 8.79531 0.954688C9.43177 1.59115 9.75 2.35625 9.75 3.25C9.75 4.14375 9.43177 4.90885 8.79531 5.54531C8.15885 6.18177 7.39375 6.5 6.5 6.5ZM0 13V10.725C0 10.2646 0.118625 9.84127 0.355875 9.45506C0.593125 9.06885 0.907833 8.77446 1.3 8.57188C2.13958 8.15208 2.99271 7.8371 3.85937 7.62694C4.72604 7.41677 5.60625 7.31196 6.5 7.3125C7.39375 7.3125 8.27396 7.41758 9.14062 7.62775C10.0073 7.83792 10.8604 8.15263 11.7 8.57188C12.0927 8.775 12.4077 9.06967 12.6449 9.45587C12.8822 9.84208 13.0005 10.2651 13 10.725V13H0ZM1.625 11.375H11.375V10.725C11.375 10.576 11.3376 10.4406 11.2629 10.3188C11.1881 10.1969 11.0901 10.1021 10.9687 10.0344C10.2375 9.66875 9.49948 9.39467 8.75469 9.21213C8.00989 9.02958 7.25833 8.93804 6.5 8.9375C5.74167 8.9375 4.9901 9.02904 4.24531 9.21213C3.50052 9.39521 2.7625 9.66929 2.03125 10.0344C1.90937 10.1021 1.81106 10.1969 1.73631 10.3188C1.66156 10.4406 1.62446 10.576 1.625 10.725V11.375ZM6.5 4.875C6.94687 4.875 7.32956 4.71575 7.64806 4.39725C7.96656 4.07875 8.12554 3.69633 8.125 3.25C8.125 2.80312 7.96575 2.42044 7.64725 2.10194C7.32875 1.78344 6.94633 1.62446 6.5 1.625C6.05312 1.625 5.67044 1.78425 5.35194 2.10275C5.03344 2.42125 4.87446 2.80367 4.875 3.25C4.875 3.69688 5.03425 4.07956 5.35275 4.39806C5.67125 4.71656 6.05367 4.87554 6.5 4.875Z" fill="#2D2A30"/>
</svg>
