<svg width="9" height="9" viewBox="0 0 9 9" fill="none" xmlns="http://www.w3.org/2000/svg">
<path id="Vector" d="M8.66188 0.911864L8.66192 0.911831C8.70607 0.867728 8.74111 0.815361 8.76503 0.757718C8.78895 0.700075 8.80128 0.638285 8.80132 0.575877C8.80135 0.513469 8.7891 0.451664 8.76525 0.393991C8.74141 0.336319 8.70643 0.283908 8.66233 0.239752C8.61823 0.195596 8.56586 0.160558 8.50822 0.13664C8.45057 0.112722 8.38879 0.100392 8.32638 0.100354C8.26397 0.100315 8.20216 0.11257 8.14449 0.136417C8.08682 0.160264 8.03441 0.195237 7.99025 0.239339L4.5213 3.7083L4.45057 3.77902L4.37986 3.70829L0.911874 0.239296C0.911871 0.239292 0.911867 0.239289 0.911864 0.239285C0.822676 0.150102 0.701713 0.1 0.575585 0.1C0.449452 0.1 0.328485 0.150106 0.239295 0.239296C0.150106 0.328485 0.1 0.449452 0.1 0.575585C0.1 0.701713 0.150102 0.822676 0.239285 0.911864C0.239289 0.911867 0.239292 0.911871 0.239296 0.911874L3.70829 4.37986L3.77903 4.45058L3.70829 4.52131L0.239296 7.9893C0.195133 8.03346 0.160102 8.08589 0.136202 8.14359C0.112301 8.20129 0.1 8.26313 0.1 8.32558C0.1 8.38804 0.112301 8.44988 0.136202 8.50758C0.160102 8.56528 0.195134 8.61771 0.239296 8.66187C0.328486 8.75106 0.449453 8.80117 0.575585 8.80117C0.638038 8.80117 0.699881 8.78887 0.757583 8.76497C0.815284 8.74107 0.867712 8.70604 0.911874 8.66187L4.37986 5.19288L4.45057 5.12215L4.5213 5.19287L7.99025 8.66183L8.66188 0.911864ZM8.66188 0.911864L5.19288 4.37986L5.12214 4.45058L5.19288 4.52131L8.66188 7.98931L8.66192 7.98934M8.66188 0.911864L8.66192 7.98934M8.66192 7.98934C8.7511 8.07841 8.80124 8.19925 8.80132 8.32529C8.80139 8.45133 8.7514 8.57224 8.66233 8.66142C8.57326 8.7506 8.45242 8.80074 8.32638 8.80082C8.20036 8.80089 8.07947 8.75091 7.9903 8.66187L8.66192 7.98934Z" fill="#EC5252" stroke="#EC5252" stroke-width="0.2"/>
</svg>
