<svg width="15" height="15" viewBox="0 0 15 15" fill="none" xmlns="http://www.w3.org/2000/svg">
<path id="Vector" d="M14.7135 13.3301C15.0955 13.7121 15.0955 14.3314 14.7135 14.7135C14.3314 15.0955 13.712 15.0955 13.33 14.7135L14.7135 13.3301ZM6.80829 8.19171C6.42624 7.80967 6.42624 7.19036 6.80829 6.80832C7.19033 6.42627 7.80964 6.42627 8.19168 6.80832L6.80829 8.19171ZM8.19168 6.80832C8.57373 7.19036 8.57373 7.80967 8.19168 8.19171C7.80964 8.57376 7.19033 8.57376 6.80829 8.19171L8.19168 6.80832ZM0.286533 1.67C-0.0955114 1.28797 -0.0955114 0.668555 0.286533 0.286523C0.668578 -0.0955078 1.28788 -0.0955078 1.66993 0.286523L0.286533 1.67ZM6.80829 6.80832C7.19033 6.42627 7.80964 6.42627 8.19168 6.80832C8.57373 7.19036 8.57373 7.80967 8.19168 8.19171L6.80829 6.80832ZM1.66993 14.7135C1.28788 15.0955 0.668578 15.0955 0.286533 14.7135C-0.0955114 14.3314 -0.0955114 13.7121 0.286533 13.3301L1.66993 14.7135ZM8.19168 8.19171C7.80964 8.57376 7.19033 8.57376 6.80829 8.19171C6.42624 7.80967 6.42624 7.19036 6.80829 6.80832L8.19168 8.19171ZM13.33 0.286523C13.712 -0.0955078 14.3314 -0.0955078 14.7135 0.286523C15.0955 0.668555 15.0955 1.28797 14.7135 1.67L13.33 0.286523ZM13.33 14.7135L6.80829 8.19171L8.19168 6.80832L14.7135 13.3301L13.33 14.7135ZM6.80829 8.19171L0.286533 1.67L1.66993 0.286523L8.19168 6.80832L6.80829 8.19171ZM8.19168 8.19171L1.66993 14.7135L0.286533 13.3301L6.80829 6.80832L8.19168 8.19171ZM6.80829 6.80832L13.33 0.286523L14.7135 1.67L8.19168 8.19171L6.80829 6.80832Z" fill="white"/>
</svg>
