<svg width="35" height="35" viewBox="0 0 35 35" fill="none" xmlns="http://www.w3.org/2000/svg">
<circle cx="17.5" cy="17.5" r="17.5" fill="#F4F7FC"/>
<path d="M16.4 26.2222C15.5168 26.2178 14.8007 25.5053 14.792 24.6222H17.992C17.9937 24.8361 17.9529 25.0482 17.872 25.2462C17.6621 25.7278 17.2334 26.079 16.72 26.1902H16.716H16.704H16.6896H16.6824C16.5895 26.2095 16.4949 26.2202 16.4 26.2222ZM22.8 23.8222H10V22.2222L11.6 21.4222V17.0222C11.5579 15.8935 11.8127 14.7735 12.3392 13.7742C12.8632 12.8474 13.759 12.1893 14.8 11.9662V10.2222H18V11.9662C20.0632 12.4574 21.2 14.2526 21.2 17.0222V21.4222L22.8 22.2222V23.8222Z" fill="#B0C3CC"/>
<circle cx="21" cy="12" r="3.6" fill="#EC5252" stroke="white" stroke-width="1.2"/>
</svg>
