<svg width="57" height="59" viewBox="0 0 57 59" fill="none" xmlns="http://www.w3.org/2000/svg">
<rect x="2" y="4.9502" width="43.2" height="52.05" rx="2" stroke="#6D96FB" stroke-width="4"/>
<line x1="12.8164" y1="23.5669" x2="23.5664" y2="23.5669" stroke="#6D96FB" stroke-width="4" stroke-linecap="round"/>
<line x1="12.8164" y1="33.4004" x2="32.4164" y2="33.4004" stroke="#6D96FB" stroke-width="4" stroke-linecap="round"/>
<line x1="12.8164" y1="43.2334" x2="31.4331" y2="43.2334" stroke="#6D96FB" stroke-width="4" stroke-linecap="round"/>
<circle cx="44.2502" cy="11.8" r="11.8" fill="white"/>
<path fill-rule="evenodd" clip-rule="evenodd" d="M32.4502 11.8C32.4502 8.67045 33.6934 5.66907 35.9063 3.45614C38.1193 1.24321 41.1206 0 44.2502 0C47.3798 0 50.3811 1.24321 52.5941 3.45614C54.807 5.66907 56.0502 8.67045 56.0502 11.8C56.0502 14.9296 54.807 17.9309 52.5941 20.1439C50.3811 22.3568 47.3798 23.6 44.2502 23.6C41.1206 23.6 38.1193 22.3568 35.9063 20.1439C33.6934 17.9309 32.4502 14.9296 32.4502 11.8ZM43.5768 16.8504L49.8796 8.9712C50.1507 8.63229 50.0957 8.13776 49.7568 7.86664C49.4179 7.59554 48.9235 7.65044 48.6523 7.98927L43.9875 13.8183C43.6376 14.2556 42.9969 14.3203 42.5666 13.9618L39.8512 11.6993C39.5175 11.4212 39.0216 11.4663 38.7435 11.8C38.4655 12.1337 38.5105 12.6296 38.8442 12.9077L43.5768 16.852V16.8504Z" fill="#2A51B1"/>
</svg>
