<svg width="60" height="57" viewBox="0 0 60 57" fill="none" xmlns="http://www.w3.org/2000/svg">
<path fill-rule="evenodd" clip-rule="evenodd" d="M14.7414 55.2155L13.1897 54.0517V49.6552L10.6034 46.2931L6.2069 47.3276L2.97414 42.5431L6.2069 38.7931L4.65517 34.0086L0 32.4569V27.4138L4.65517 25.4741L6.2069 20.819L2.97414 17.3276L6.2069 12.1552L10.6034 13.7069L14.0948 9.9569L13.1897 5.68965L17.7155 2.97414L21.0776 5.68965L26.25 4.39655L27.4138 0H33.1034L34.5259 4.39655L39.0517 5.68965L42.6724 2.97414L47.9741 5.0431L46.8103 9.9569L50.9483 13.7069L54.569 12.1552L57.4138 17.3276L53.9224 20.819L55.8621 25.4741L60 27.4138V32.4569L55.8621 34.0086L54.569 38.7931L57.4138 42.5431L54.569 47.3276L50.0431 46.2931L46.4224 50.1724L47.9741 54.0517L45 56.1207L14.7414 55.2155ZM30.5179 49.655C41.8017 49.655 50.949 40.5077 50.949 29.224C50.949 17.9403 41.8017 8.79297 30.5179 8.79297C19.2342 8.79297 10.0869 17.9403 10.0869 29.224C10.0869 40.5077 19.2342 49.655 30.5179 49.655Z" fill="#6D96FB"/>
<rect x="28.4482" y="21.4656" width="18.8793" height="34.3966" fill="#2A51B1"/>
<rect x="31.5518" y="24.0518" width="2.58621" height="2.58621" fill="#6D96FB"/>
<rect x="36.207" y="24.0518" width="2.58621" height="2.58621" fill="#6D96FB"/>
<rect x="41.3799" y="24.0515" width="2.58621" height="2.58621" fill="#6D96FB"/>
<rect x="31.5518" y="29.2241" width="2.58621" height="2.58621" fill="#6D96FB"/>
<rect x="36.207" y="29.2241" width="2.58621" height="2.58621" fill="#6D96FB"/>
<rect x="41.3799" y="29.2239" width="2.58621" height="2.58621" fill="#6D96FB"/>
<rect x="31.5518" y="34.3965" width="2.58621" height="2.58621" fill="#6D96FB"/>
<rect x="36.207" y="34.3965" width="2.58621" height="2.58621" fill="#6D96FB"/>
<rect x="41.3799" y="34.3967" width="2.58621" height="2.58621" fill="#6D96FB"/>
<rect x="31.5518" y="39.5688" width="2.58621" height="2.58621" fill="#6D96FB"/>
<rect x="36.207" y="39.5688" width="2.58621" height="2.58621" fill="#6D96FB"/>
<rect x="41.3799" y="39.5691" width="2.58621" height="2.58621" fill="#6D96FB"/>
<rect x="31.5518" y="44.7415" width="2.58621" height="2.58621" fill="#6D96FB"/>
<rect x="36.207" y="44.7415" width="2.58621" height="2.58621" fill="#6D96FB"/>
<rect x="41.3799" y="44.7415" width="2.58621" height="2.58621" fill="#6D96FB"/>
<rect x="31.5518" y="49.9138" width="2.58621" height="2.58621" fill="#6D96FB"/>
<rect x="36.207" y="49.9138" width="2.58621" height="2.58621" fill="#6D96FB"/>
<rect x="41.3799" y="49.9138" width="2.58621" height="2.58621" fill="#6D96FB"/>
<rect x="15" y="25.345" width="13.4483" height="30.5172" fill="#2A51B1"/>
<rect x="18.1035" y="27.9312" width="2.58621" height="2.58621" fill="#6D96FB"/>
<rect x="22.7588" y="27.9312" width="2.58621" height="2.58621" fill="#6D96FB"/>
<rect x="18.1035" y="33.1035" width="2.58621" height="2.58621" fill="#6D96FB"/>
<rect x="22.7588" y="33.1035" width="2.58621" height="2.58621" fill="#6D96FB"/>
<rect x="18.1035" y="38.2761" width="2.58621" height="2.58621" fill="#6D96FB"/>
<rect x="22.7588" y="38.2761" width="2.58621" height="2.58621" fill="#6D96FB"/>
<rect x="18.1035" y="43.4485" width="2.58621" height="2.58621" fill="#6D96FB"/>
<rect x="22.7588" y="43.4485" width="2.58621" height="2.58621" fill="#6D96FB"/>
<rect x="18.1035" y="48.6208" width="2.58621" height="2.58621" fill="#6D96FB"/>
<rect x="22.7588" y="48.6208" width="2.58621" height="2.58621" fill="#6D96FB"/>
<rect y="54.0518" width="58.4483" height="2.06897" fill="#2A51B1"/>
</svg>
