<svg width="60" height="60" viewBox="0 0 60 60" fill="none" xmlns="http://www.w3.org/2000/svg">
<path d="M33.682 31.4634C36.2186 31.1707 38.3975 32.0732 39.1698 32.561C36.5357 32.0732 33.7633 33.7398 32.7064 34.6341L29.2918 40.7317C28.3161 43.4634 29.6983 45.935 30.5113 46.8293C27.9746 50.1463 29.0478 53.3333 29.9015 54.5122H2.34058C0.194239 54.4146 -0.0984438 53.1707 0.0235074 52.561V43.5366C0.511312 34.6585 7.86904 31.7886 11.4869 31.4634H33.682Z" fill="#6D96FB"/>
<path fill-rule="evenodd" clip-rule="evenodd" d="M40.8765 39.2682L43.0716 37.9267L43.3155 35.3658C43.3562 34.9999 43.7302 34.195 44.9009 33.9023H48.9253C49.3318 33.9023 50.1936 34.195 50.3887 35.3658L50.6326 38.1706L52.7058 39.2682L55.3887 38.1706C55.9172 38.0487 57.0716 38.0975 57.4619 39.2682L58.9253 41.7072C59.2505 42.195 59.7058 43.317 58.9253 43.9023L56.6082 45.6097V48.0487C56.6082 48.2438 58.1529 49.4308 58.9253 49.9999C59.1285 50.3251 59.4131 51.1462 58.9253 51.8292L57.4619 54.5121C57.218 55.0812 56.4619 56.1219 55.3887 55.7316L52.7058 54.5121C52.2586 54.9186 51.218 55.7316 50.6326 55.7316L50.2668 58.9023C49.9822 59.2275 49.2424 59.9023 48.5594 59.9999H45.0229C44.5351 59.8373 43.5351 59.317 43.4375 58.5365V56.0975L41.1204 54.5121L38.8033 55.7316C38.2342 55.8942 36.9741 55.9999 36.4863 55.1219L34.5351 51.8292C34.3725 51.4633 34.1936 50.6097 34.779 50.1219L37.5839 48.2926C37.4213 47.8454 37.1448 46.7316 37.34 45.8536L34.779 43.9023C34.535 43.6178 34.1936 42.8536 34.779 42.0731L36.4863 38.7804C36.6895 38.3739 37.4375 37.6828 38.8033 38.1706L40.8765 39.2682ZM47.4623 51.2193C50.089 51.2193 52.2184 49.0899 52.2184 46.4632C52.2184 43.8365 50.089 41.7071 47.4623 41.7071C44.8356 41.7071 42.7062 43.8365 42.7062 46.4632C42.7062 49.0899 44.8356 51.2193 47.4623 51.2193Z" fill="#2A51B1"/>
<circle cx="23.6827" cy="12.9268" r="12.9268" fill="#6D96FB"/>
</svg>
