<svg width="26" height="26" viewBox="0 0 26 26" fill="none" xmlns="http://www.w3.org/2000/svg">
<path fill-rule="evenodd" clip-rule="evenodd" d="M6.929 0H19.0697C23.491 0 25.987 2.5077 26 6.929V19.071C26 23.491 23.491 26 19.0697 26H6.929C2.5077 26 0 23.491 0 19.071V6.929C0 2.5077 2.5077 0 6.929 0ZM13.0641 20.6179C13.6244 20.6179 14.0911 20.2019 14.1431 19.6429V6.39587C14.1951 5.99287 14.0014 5.58857 13.6504 5.36888C13.2851 5.14787 12.8431 5.14787 12.4934 5.36888C12.1411 5.58857 11.9474 5.99287 11.9851 6.39587V19.6429C12.0514 20.2019 12.5181 20.6179 13.0641 20.6179ZM19.0444 20.6173C19.5904 20.6173 20.0571 20.2013 20.1234 19.6423V15.3783C20.1611 14.961 19.9674 14.5723 19.6151 14.3513C19.2654 14.1303 18.8234 14.1303 18.4594 14.3513C18.1071 14.5723 17.9134 14.961 17.9654 15.3783V19.6423C18.0174 20.2013 18.4841 20.6173 19.0444 20.6173ZM8.08743 19.6425C8.03543 20.2015 7.56873 20.6175 7.00843 20.6175C6.44943 20.6175 5.98143 20.2015 5.93073 19.6425V10.6595C5.89173 10.2552 6.08543 9.85355 6.43773 9.63255C6.78743 9.41155 7.23073 9.41155 7.58173 9.63255C7.93143 9.85355 8.12773 10.2552 8.08743 10.6595V19.6425Z" fill="white"/>
</svg>
