<svg width="33" height="27" viewBox="0 0 33 27" fill="none" xmlns="http://www.w3.org/2000/svg">
<path fill-rule="evenodd" clip-rule="evenodd" d="M3.13011 22.5345C2.81583 22.6962 2.53099 22.8427 2.33039 22.9187C1.89905 23.0818 1.85554 22.9193 1.50804 21.6216L1.50751 21.6196C1.15908 20.3205 0.506442 17.8842 0.190734 16.6474C-0.124974 15.4103 -0.103308 15.3731 0.67535 15.1485C1.45401 14.9243 2.98966 14.5126 4.55449 14.1806C6.11933 13.8481 7.7129 13.5952 8.87315 13.6721C10.0334 13.749 10.7594 14.1558 11.4859 14.8001C11.5849 14.8878 11.6805 14.9729 11.7733 15.0553C13.2461 16.365 13.9915 17.0279 16.1238 17.8457C17.1618 18.2438 18.0559 18.3725 18.9673 18.5038C19.5937 18.594 20.2283 18.6854 20.9236 18.8662C23.0813 19.4282 22.4375 21.3459 20.7414 21.6413C19.165 21.9157 17.6226 21.5641 16.4445 21.2955C16.0734 21.2109 15.7385 21.1345 15.45 21.0886C14.2608 20.899 13.3426 20.4811 12.3639 20.0357C11.8749 19.8132 11.3708 19.5838 10.8103 19.3725C10.4057 19.22 10.3907 19.224 10.545 19.4751C12.2615 22.2709 18.2546 23.215 21.3445 22.4452C21.9376 22.2972 22.5613 21.9259 23.1321 21.5859C23.2557 21.5123 23.3769 21.4401 23.4948 21.372C23.5098 21.364 28.4767 18.6651 29.3836 18.0633C31.1872 16.8672 35.2034 18.203 31.2977 20.4762C30.741 20.8002 30.1784 21.1351 29.6073 21.475C26.3072 23.4396 22.7231 25.5732 18.3431 26.747C16.4157 27.263 15.3133 26.957 13.5601 26.1134C12.5882 25.6458 11.2527 24.8819 9.96171 24.1434C8.92331 23.5494 7.91368 22.9719 7.14516 22.5782C5.4207 21.6948 4.90955 21.7368 4.24498 22.0021C3.88972 22.1438 3.49055 22.3491 3.13011 22.5345ZM26.3148 16.8289C27.2958 16.4644 28.4511 16.0351 28.7641 17.232C28.8935 17.727 25.6007 19.4105 24.0386 20.2091C23.7268 20.3685 23.484 20.4926 23.3511 20.565C23.3639 19.9717 23.0362 19.3522 22.423 18.8596C23.0995 18.49 24.5007 17.7237 25.7352 17.0326C25.9149 16.9776 26.1111 16.9047 26.3148 16.8289ZM23.1472 16.2093C23.6398 16.2442 24.1271 16.4768 24.5852 16.7832C23.214 17.5437 21.845 18.2892 21.6624 18.3883C21.4175 18.2724 21.1477 18.1725 20.855 18.0933C20.5701 18.0164 18.9813 17.8011 18.4292 17.7263C18.3114 17.7103 18.2407 17.7007 18.24 17.7002C18.2144 17.6857 22.0263 16.1292 23.1472 16.2093Z" fill="white"/>
<path fill-rule="evenodd" clip-rule="evenodd" d="M26 7.5C26 11.6421 22.6421 15 18.5 15C14.3579 15 11 11.6421 11 7.5C11 3.35786 14.3579 0 18.5 0C22.6421 0 26 3.35786 26 7.5ZM21.0615 4.91966H19.0563C19.3699 5.29669 19.5769 5.76587 19.6296 6.28125H21.0615C21.3112 6.28125 21.5155 6.48554 21.5155 6.73522C21.5155 6.98491 21.3112 7.18919 21.0615 7.18919H19.5603C19.2752 8.28167 18.2842 9.08449 17.1006 9.08449H16.5883L19.8363 12.2054C20.0178 12.3757 20.0178 12.6707 19.8476 12.8523C19.7455 12.9431 19.632 12.9999 19.5185 12.9999C19.405 12.9999 19.2915 12.9545 19.2007 12.875L15.1376 8.95951C14.9561 8.78927 14.9561 8.49419 15.1263 8.3126C15.2221 8.21036 15.3576 8.16568 15.49 8.17655H17.1006C17.7698 8.17655 18.3504 7.77193 18.602 7.18919H15.4549C15.2053 7.18919 15.001 6.98491 15.001 6.73522C15.001 6.48554 15.2053 6.28125 15.4549 6.28125H18.7145C18.601 5.5632 18.0261 5.00623 17.299 4.91966H15.4549C15.2053 4.91966 15.001 4.71538 15.001 4.46569L15.001 4.45983L15.001 4.45397C15.001 4.20429 15.2053 4 15.4549 4H17.1006C17.1831 4 17.2648 4.00397 17.3453 4.01172H21.0615C21.3112 4.01172 21.5155 4.21601 21.5155 4.46569C21.5155 4.71538 21.3112 4.91966 21.0615 4.91966Z" fill="white"/>
</svg>
