<svg width="24" height="24" viewBox="0 0 24 24" fill="none" xmlns="http://www.w3.org/2000/svg">
<path d="M11.7 22.7501H7.26001C5.99018 22.7878 4.75717 22.3206 3.8312 21.4509C2.90522 20.5811 2.36179 19.3798 2.32001 18.1101V5.89005C2.36179 4.62035 2.90522 3.41899 3.8312 2.54925C4.75717 1.6795 5.99018 1.21231 7.26001 1.25005H11.7C12.9708 1.21227 14.2049 1.67915 15.1325 2.54863C16.06 3.41811 16.6056 4.61946 16.65 5.89005C16.65 6.09255 16.5703 6.2869 16.428 6.43102C16.2858 6.57514 16.0925 6.65742 15.89 6.66005C15.6866 6.65746 15.4922 6.5755 15.3484 6.43166C15.2046 6.28781 15.1226 6.09346 15.12 5.89005C15.0785 5.02341 14.6953 4.2085 14.0544 3.62375C13.4134 3.03899 12.5668 2.73203 11.7 2.77005H7.26001C6.39389 2.73468 5.54881 3.04255 4.90842 3.62677C4.26803 4.21099 3.88408 5.02433 3.84001 5.89005V18.1101C3.88408 18.9758 4.26803 19.7891 4.90842 20.3733C5.54881 20.9576 6.39389 21.2654 7.26001 21.2301H11.7C12.5668 21.2681 13.4134 20.9611 14.0544 20.3764C14.6953 19.7916 15.0785 18.9767 15.12 18.1101C15.1226 17.9066 15.2046 17.7123 15.3484 17.5684C15.4922 17.4246 15.6866 17.3426 15.89 17.3401C16.0925 17.3427 16.2858 17.425 16.428 17.5691C16.5703 17.7132 16.65 17.9076 16.65 18.1101C16.6056 19.3806 16.06 20.582 15.1325 21.4515C14.2049 22.3209 12.9708 22.7878 11.7 22.7501ZM20.92 11.2401H10.86L12.53 9.57005C12.6694 9.42481 12.7472 9.23133 12.7472 9.03005C12.7472 8.82878 12.6694 8.63529 12.53 8.49005C12.4593 8.4187 12.3752 8.36206 12.2825 8.3234C12.1899 8.28474 12.0904 8.26484 11.99 8.26484C11.8896 8.26484 11.7902 8.28474 11.6975 8.3234C11.6048 8.36206 11.5207 8.4187 11.45 8.49005L8.45001 11.4901C8.37865 11.5607 8.32201 11.6448 8.28336 11.7375C8.2447 11.8302 8.2248 11.9296 8.2248 12.0301C8.2248 12.1305 8.2447 12.2299 8.28336 12.3226C8.32201 12.4153 8.37865 12.4994 8.45001 12.5701L11.45 15.5701C11.5208 15.6409 11.605 15.6969 11.6978 15.7347C11.7905 15.7725 11.8899 15.7913 11.99 15.7901C12.0901 15.7907 12.1893 15.7717 12.2819 15.7339C12.3746 15.6961 12.4589 15.6405 12.53 15.5701C12.6694 15.4248 12.7472 15.2313 12.7472 15.0301C12.7472 14.8288 12.6694 14.6353 12.53 14.4901L10.86 12.8201H20.92C21.0198 12.8201 21.1186 12.8004 21.2108 12.7622C21.3031 12.724 21.3868 12.668 21.4574 12.5975C21.528 12.5269 21.584 12.4431 21.6222 12.3509C21.6603 12.2587 21.68 12.1599 21.68 12.0601C21.68 11.9602 21.6603 11.8614 21.6222 11.7692C21.584 11.677 21.528 11.5932 21.4574 11.5227C21.3868 11.4521 21.3031 11.3961 21.2108 11.3579C21.1186 11.3197 21.0198 11.3001 20.92 11.3001V11.2401Z" fill="#F2F2F2"/>
</svg>
