<svg width="28" height="32" viewBox="0 0 28 32" fill="none" xmlns="http://www.w3.org/2000/svg">
<path d="M27.42 6.09248L14.42 0.0924759C14.2884 0.0315549 14.1451 0 14 0C13.855 0 13.7116 0.0315549 13.58 0.0924759L0.580003 6.09248C0.406423 6.17281 0.259522 6.30123 0.15672 6.46253C0.0539189 6.62382 -0.000470225 6.81121 3.06274e-06 7.00248V24.0025C-0.000470225 24.1937 0.0539189 24.3811 0.15672 24.5424C0.259522 24.7037 0.406423 24.8321 0.580003 24.9125L13.58 30.9125C13.7116 30.9734 13.855 31.005 14 31.005C14.1451 31.005 14.2884 30.9734 14.42 30.9125L27.42 24.9125C27.5936 24.8321 27.7405 24.7037 27.8433 24.5424C27.9461 24.3811 28.0005 24.1937 28 24.0025V7.00248C28.0005 6.81121 27.9461 6.62382 27.8433 6.46253C27.7405 6.30123 27.5936 6.17281 27.42 6.09248ZM14 11.9025L3.39 7.00248L14 2.10248L24.61 7.00248L14 11.9025ZM26 23.3625L15 28.4425V13.6425L26 8.56248V23.3625Z" fill="white"/>
</svg>
