<svg width="36" height="22" viewBox="0 0 36 22" fill="none" xmlns="http://www.w3.org/2000/svg">
<path d="M24.1744 16.8262C23.5052 16.8265 22.8489 16.6417 22.2782 16.2922C21.7074 15.9427 21.2444 15.4422 20.9404 14.846C20.6364 14.2497 20.5033 13.581 20.5557 12.9138C20.6081 12.2467 20.844 11.607 21.2373 11.0656C21.6017 10.5611 22.0897 10.1588 22.6543 9.89706C23.2189 9.63532 23.8413 9.52303 24.4618 9.57094C25.0823 9.61885 25.6801 9.82536 26.1979 10.1707C26.7157 10.516 27.1361 10.9885 27.4187 11.543C27.7014 12.0974 27.8369 12.7152 27.8123 13.3371C27.7876 13.9589 27.6037 14.564 27.278 15.0944C26.9523 15.6247 26.4958 16.0625 25.9523 16.3657C25.4089 16.669 24.7967 16.8275 24.1744 16.8262ZM24.1744 16.8262C24.1743 16.8262 24.1743 16.8262 24.1742 16.8262L24.1745 16.7262L24.1745 16.8262C24.1745 16.8262 24.1744 16.8262 24.1744 16.8262ZM22.9498 12.3109L22.9499 12.3108C23.0898 12.1169 23.2737 11.9591 23.4866 11.8503C23.6995 11.7415 23.9353 11.6848 24.1744 11.6851H24.1745C24.5143 11.6849 24.8442 11.799 25.1111 12.0092C25.3781 12.2193 25.5665 12.5132 25.6461 12.8435C25.7257 13.1738 25.6919 13.5212 25.5499 13.8299C25.408 14.1386 25.1663 14.3905 24.8638 14.5451C24.5613 14.6997 24.2155 14.748 23.8822 14.6822C23.5489 14.6163 23.2475 14.4402 23.0264 14.1822C22.8054 13.9242 22.6776 13.5993 22.6637 13.2599C22.6498 12.9204 22.7506 12.5862 22.9498 12.3109Z" fill="white" stroke="white" stroke-width="0.2"/>
<path d="M13.0988 13.36H13.0988C13.2922 13.3604 13.4852 13.3455 13.6762 13.3156L13.6762 13.3156C14.6058 13.1691 15.4425 12.6685 16.0112 11.9188C16.5799 11.1691 16.8363 10.2284 16.7269 9.29378C16.6175 8.35918 16.1506 7.50318 15.4241 6.90513C14.6976 6.30708 13.7679 6.01337 12.8296 6.08554C11.8914 6.15771 11.0175 6.59016 10.3911 7.29229C9.76457 7.99442 9.43411 8.91174 9.4689 9.85209C9.50369 10.7924 9.90103 11.6828 10.5777 12.3368C11.2543 12.9907 12.1578 13.3574 13.0988 13.36ZM12.8398 8.11417L12.8477 8.2138L13.0911 8.21379C13.4779 8.24519 13.8376 8.42501 14.0949 8.71561C14.3523 9.00623 14.4872 9.38512 14.4715 9.77297C14.4558 10.1608 14.2907 10.5276 14.0107 10.7964C13.7307 11.0653 13.3576 11.2155 12.9694 11.2155C12.5813 11.2155 12.2081 11.0653 11.9282 10.7964C11.6482 10.5276 11.4831 10.1608 11.4674 9.77297C11.4517 9.38512 11.5866 9.00623 11.8439 8.71561C12.1013 8.42499 12.461 8.24516 12.8479 8.21379L12.8398 8.11417Z" fill="white" stroke="white" stroke-width="0.2"/>
<path d="M4.52374 21.4104L4.52463 21.4104C4.71794 21.4091 4.91085 21.3927 5.10157 21.3611C5.69221 21.2681 6.25077 21.0308 6.72771 20.6702C7.20476 20.3096 7.5854 19.8367 7.83583 19.2936C8.08627 18.7505 8.19877 18.154 8.16333 17.557C8.1279 16.96 7.94563 16.381 7.63271 15.8713C7.31979 15.3617 6.8859 14.9372 6.36953 14.6355C5.85317 14.3338 5.27031 14.1642 4.67268 14.1418C4.07505 14.1194 3.48114 14.2449 2.94365 14.5072C2.40622 14.7694 1.94182 15.1602 1.59167 15.6449C1.19905 16.1865 0.963561 16.8259 0.911165 17.4928C0.858768 18.1596 0.991493 18.828 1.29471 19.4242C1.59793 20.0205 2.05988 20.5214 2.62963 20.8719C3.19939 21.2223 3.85484 21.4087 4.52374 21.4104ZM3.30888 16.8904L3.30923 16.8899C3.42496 16.7283 3.57161 16.5911 3.74068 16.4865C3.90976 16.3819 4.0979 16.3119 4.29423 16.2805C4.49055 16.2491 4.69115 16.257 4.88442 16.3036C5.07768 16.3503 5.25977 16.4348 5.42015 16.5524L5.42063 16.5527C5.6631 16.7281 5.84808 16.9716 5.95218 17.2522C6.05628 17.5327 6.07483 17.8379 6.00546 18.129C5.9361 18.4202 5.78194 18.6842 5.5625 18.8877C5.34306 19.0912 5.06819 19.225 4.77266 19.2723C4.47713 19.3196 4.17423 19.2781 3.90227 19.1532C3.6303 19.0283 3.4015 18.8255 3.24481 18.5705C3.08811 18.3155 3.01056 18.0198 3.02197 17.7207C3.03337 17.4217 3.13322 17.1327 3.30888 16.8904Z" fill="white" stroke="white" stroke-width="0.2"/>
<path d="M15.445 10.7672L15.4017 10.8574L15.4919 10.9007L21.199 13.6424L21.2891 13.6857L21.3324 13.5956L22.1639 11.8649L22.2072 11.7747L22.1171 11.7314L16.4099 8.98966L16.3198 8.94636L16.2765 9.03649L15.445 10.7672Z" fill="white" stroke="white" stroke-width="0.2"/>
<path d="M5.85368 15.7543L5.79357 15.8343L5.87348 15.8944L7.40796 17.0486L7.48788 17.1087L7.54799 17.0288L11.6714 11.5469L11.7315 11.4669L11.6516 11.4068L10.1171 10.2526L10.0372 10.1925L9.97711 10.2724L5.85368 15.7543Z" fill="white" stroke="white" stroke-width="0.2"/>
<path d="M31.8306 8.16601C31.1614 8.16631 30.5051 7.98151 29.9344 7.63206C29.3636 7.28259 28.9007 6.78205 28.5967 6.18582C28.2927 5.58958 28.1595 4.92088 28.2119 4.25367C28.2643 3.58652 28.5002 2.94685 28.8935 2.40542C29.258 1.90099 29.7459 1.49862 30.3105 1.2369C30.8751 0.975166 31.4976 0.862871 32.1181 0.910783C32.7386 0.958694 33.3364 1.16521 33.8542 1.51052C34.3719 1.85583 34.7923 2.32836 35.075 2.88281C35.3577 3.43726 35.4932 4.05504 35.4685 4.6769C35.4439 5.29877 35.2599 5.90388 34.9342 6.43421C34.6085 6.96455 34.1521 7.40233 33.6086 7.70557C33.0651 8.00879 32.4529 8.16734 31.8306 8.16601ZM31.8306 8.16601C31.8306 8.16601 31.8305 8.16601 31.8305 8.16601L31.8307 8.06601L31.8307 8.16601C31.8307 8.16601 31.8307 8.16601 31.8306 8.16601ZM30.6108 3.65084L30.6111 3.65035C30.7269 3.48869 30.8735 3.35158 31.0426 3.24698C31.2117 3.14237 31.3998 3.07235 31.5961 3.04095C31.7925 3.00956 31.9931 3.01742 32.1863 3.06408C32.3796 3.11074 32.5617 3.19527 32.7221 3.31279L32.7225 3.31314C32.965 3.48858 33.15 3.73199 33.2541 4.01259C33.3582 4.29318 33.3767 4.59834 33.3074 4.88947C33.238 5.18061 33.0838 5.44462 32.8644 5.64813C32.645 5.85163 32.3701 5.98548 32.0746 6.03274C31.779 6.08 31.4761 6.03855 31.2042 5.91362C30.9322 5.7887 30.7034 5.58592 30.5467 5.33094C30.39 5.07596 30.3125 4.78024 30.3239 4.48117C30.3353 4.18211 30.4351 3.89315 30.6108 3.65084Z" fill="white" stroke="white" stroke-width="0.2"/>
<path d="M24.9929 10.3113L24.9175 10.377L24.9832 10.4524L26.2442 11.9004L26.3098 11.9758L26.3852 11.9102L31.4895 7.46524L31.5649 7.39956L31.4993 7.32415L30.2383 5.87612L30.1726 5.80071L30.0972 5.86638L24.9929 10.3113Z" fill="white" stroke="white" stroke-width="0.2"/>
</svg>
