<svg width="23" height="26" viewBox="0 0 23 26" fill="none" xmlns="http://www.w3.org/2000/svg">
<g id="Layer 1">
<path id="Vector" d="M11.5 0C5.14981 0 0 1.72018 0 3.85298V7.00932C0 9.15284 5.14981 10.8623 11.5 10.8623C17.8502 10.8623 22.9946 9.14212 22.9946 7.00932V3.85298C23 1.72018 17.8502 0 11.5 0Z" fill="white"/>
<path id="Vector_2" d="M11.5 12.7057C5.43383 12.7057 0.439422 11.1356 0 9.13672C0 9.23318 0 14.3616 0 14.3616C0 16.5051 5.14981 18.2092 11.5 18.2092C17.8502 18.2092 22.9946 16.489 22.9946 14.3616C22.9946 14.3616 22.9946 9.23318 22.9946 9.13672C22.5552 11.1356 17.5662 12.7057 11.5 12.7057Z" fill="white"/>
<path id="Vector_3" d="M22.9898 16.5747C22.5504 18.5682 17.5667 20.1437 11.5059 20.1437C5.44505 20.1437 0.445282 18.5682 0.00585938 16.5747V21.7995C0.00585938 23.9431 5.15567 25.6472 11.5059 25.6472C17.856 25.6472 23.0005 23.927 23.0005 21.7995L22.9898 16.5747Z" fill="white"/>
</g>
</svg>
