<svg width="32" height="32" viewBox="0 0 32 32" fill="none" xmlns="http://www.w3.org/2000/svg">
<path fill-rule="evenodd" clip-rule="evenodd" d="M27.0185 17.986C27.4923 18.2377 27.8577 18.635 28.1149 19.0323C28.6157 19.8534 28.5751 20.86 28.0878 21.7473L27.1404 23.3366C26.6396 24.1842 25.7057 24.714 24.7447 24.714C24.271 24.714 23.7431 24.5816 23.31 24.3167C22.9581 24.0915 22.552 24.0121 22.1189 24.0121C20.779 24.0121 19.6556 25.1113 19.615 26.4225C19.615 27.9456 18.3698 29.1375 16.8133 29.1375H14.9725C13.4025 29.1375 12.1573 27.9456 12.1573 26.4225C12.1302 25.1113 11.0068 24.0121 9.66686 24.0121C9.22021 24.0121 8.81417 24.0915 8.4758 24.3167C8.04268 24.5816 7.50129 24.714 7.0411 24.714C6.06659 24.714 5.13269 24.1842 4.6319 23.3366L3.69799 21.7473C3.19721 20.8865 3.17014 19.8534 3.67093 19.0323C3.88748 18.635 4.29353 18.2377 4.75371 17.986C5.13269 17.8006 5.37632 17.496 5.60641 17.1384C6.28315 15.9994 5.87711 14.5028 4.72664 13.8274C3.38669 13.0725 2.95358 11.3905 3.72506 10.0793L4.6319 8.51653C5.41692 7.20537 7.09524 6.74183 8.44873 7.50998C9.62626 8.14569 11.1557 7.72189 11.846 6.59614C12.0625 6.22531 12.1843 5.82799 12.1573 5.43066C12.1302 4.91415 12.2791 4.42412 12.5363 4.0268C13.037 3.20566 13.9439 2.6759 14.9319 2.64941H16.8403C17.8419 2.64941 18.7487 3.20566 19.2495 4.0268C19.4932 4.42412 19.6556 4.91415 19.615 5.43066C19.5879 5.82799 19.7097 6.22531 19.9263 6.59614C20.6166 7.72189 22.146 8.14569 23.3371 7.50998C24.677 6.74183 26.3689 7.20537 27.1404 8.51653L28.0472 10.0793C28.8322 11.3905 28.3991 13.0725 27.0456 13.8274C25.8952 14.5028 25.4891 15.9994 26.1794 17.1384C26.3959 17.496 26.6396 17.8006 27.0185 17.986ZM12.0621 15.9068C12.0621 17.9861 13.781 19.6416 15.906 19.6416C18.031 19.6416 19.7093 17.9861 19.7093 15.9068C19.7093 13.8275 18.031 12.1587 15.906 12.1587C13.781 12.1587 12.0621 13.8275 12.0621 15.9068Z" fill="white"/>
</svg>
