<svg width="28" height="25" viewBox="0 0 28 25" fill="none" xmlns="http://www.w3.org/2000/svg">
<path fill-rule="evenodd" clip-rule="evenodd" d="M21.5338 7.88672H27.1375C27.1375 3.38744 24.4416 0.759033 19.8739 0.759033H7.91304C3.34531 0.759033 0.649414 3.38744 0.649414 7.82933V17.528C0.649414 21.9699 3.34531 24.5983 7.91304 24.5983H19.8739C24.4416 24.5983 27.1375 21.9699 27.1375 17.528V17.1148H21.5338C18.9331 17.1148 16.8248 15.0593 16.8248 12.5237C16.8248 9.98813 18.9331 7.93263 21.5338 7.93263V7.88672ZM21.533 9.8609H26.1478C26.694 9.8609 27.1367 10.2926 27.1367 10.825V14.1765C27.1303 14.7064 26.6913 15.1345 26.1478 15.1407H21.6389C20.3223 15.1579 19.171 14.2791 18.8724 13.0288C18.7229 12.2526 18.9328 11.4517 19.446 10.8407C19.9591 10.2297 20.7231 9.87105 21.533 9.8609ZM21.7327 13.3847H22.1683C22.7275 13.3847 23.1807 12.9428 23.1807 12.3976C23.1807 11.8525 22.7275 11.4105 22.1683 11.4105H21.7327C21.4653 11.4075 21.2078 11.5089 21.0175 11.6922C20.8273 11.8755 20.7203 12.1254 20.7203 12.3862C20.7203 12.9332 21.1717 13.3784 21.7327 13.3847ZM6.92472 7.88669H14.4002C14.9594 7.88669 15.4127 7.44476 15.4127 6.89961C15.4127 6.35445 14.9594 5.91252 14.4002 5.91252H6.92472C6.37013 5.91248 5.91873 6.34746 5.91228 6.88813C5.91225 7.43517 6.36367 7.8804 6.92472 7.88669Z" fill="white"/>
</svg>
